<?xml version="1.0" encoding="UTF-8"?>
<!DOCTYPE svg PUBLIC "-//W3C//DTD SVG 1.1//EN" "http://www.w3.org/Graphics/SVG/1.1/DTD/svg11.dtd">
<svg xmlns="http://www.w3.org/2000/svg" version="1.1" width="500px" height="500px" style="shape-rendering:geometricPrecision; text-rendering:geometricPrecision; image-rendering:optimizeQuality; fill-rule:evenodd; clip-rule:evenodd" xmlns:xlink="http://www.w3.org/1999/xlink">
<g><path style="opacity:0.999" fill="#c288fc" d="M 68.5,143.5 C 67.1667,143.5 65.8333,143.5 64.5,143.5C 64.5,145.833 64.5,148.167 64.5,150.5C 205.5,150.5 346.5,150.5 487.5,150.5C 487.5,166.5 487.5,182.5 487.5,198.5C 330.833,198.5 174.167,198.5 17.5,198.5C 15.8373,180.022 14.8373,161.356 14.5,142.5C 12.1818,128.619 10.5151,114.619 9.5,100.5C 166.149,81.3355 322.816,62.3355 479.5,43.5C 480.837,58.1973 482.504,72.864 484.5,87.5C 484.387,89.6413 483.72,91.4747 482.5,93C 344.53,110.163 206.53,126.996 68.5,143.5 Z M 414.5,69.5 C 414.573,67.9731 413.906,66.9731 412.5,66.5C 410.549,62.7706 408.216,59.2706 405.5,56C 420.129,53.6709 434.796,52.0042 449.5,51C 457.966,63.4322 466.8,75.5989 476,87.5C 476.483,88.448 476.649,89.448 476.5,90.5C 462.543,91.4739 448.71,93.1406 435,95.5C 427.917,86.9848 421.084,78.3181 414.5,69.5 Z M 361.5,102.5 C 361.5,103.167 361.5,103.833 361.5,104.5C 347.118,105.924 332.785,107.424 318.5,109C 311.022,97.7024 303.022,86.8691 294.5,76.5C 294.573,74.9731 293.906,73.9731 292.5,73.5C 291.972,72.2794 291.305,71.1127 290.5,70C 305.154,67.8345 319.82,66.1678 334.5,65C 343.632,77.4411 352.632,89.9411 361.5,102.5 Z M 246.5,116.5 C 244.492,118.083 242.159,119.083 239.5,119.5C 227.459,120.673 215.459,121.84 203.5,123C 197.511,114.164 191.178,105.664 184.5,97.5C 184.573,95.9731 183.906,94.9731 182.5,94.5C 180.748,91.328 178.748,88.328 176.5,85.5C 176.5,84.8333 176.5,84.1667 176.5,83.5C 190.571,82.3244 204.571,80.6577 218.5,78.5C 227.843,91.1962 237.176,103.863 246.5,116.5 Z M 132.5,131.5 C 127.833,132.5 123.167,133.5 118.5,134.5C 108.482,135.504 98.4817,136.337 88.5,137C 85.8422,132.825 82.8422,128.992 79.5,125.5C 79.573,123.973 78.9063,122.973 77.5,122.5C 72.6439,114.774 67.3106,107.441 61.5,100.5C 61.7822,99.2223 62.4489,98.2223 63.5,97.5C 77.1544,95.9173 90.8211,94.7506 104.5,94C 113.697,106.683 123.03,119.183 132.5,131.5 Z M 44.5,108.5 C 44.9731,109.906 45.9731,110.573 47.5,110.5C 54.3727,119.837 52.706,127.004 42.5,132C 33.0789,132.598 28.0789,128.098 27.5,118.5C 30.0323,109.737 35.699,106.403 44.5,108.5 Z M 110.5,195.5 C 95.6572,195.829 80.9905,195.496 66.5,194.5C 74.0276,180.613 81.6943,166.78 89.5,153C 103.829,152.5 118.163,152.333 132.5,152.5C 125.443,166.947 118.109,181.281 110.5,195.5 Z M 226.5,195.5 C 211.657,195.829 196.99,195.496 182.5,194.5C 190.028,180.613 197.694,166.78 205.5,153C 219.845,152.167 234.178,152.334 248.5,153.5C 241.141,167.554 233.808,181.554 226.5,195.5 Z M 342.5,194.5 C 335.076,195.151 327.576,195.484 320,195.5C 312.467,195.497 305.301,194.831 298.5,193.5C 305.805,180.229 313.139,166.895 320.5,153.5C 335.167,152.167 349.833,152.167 364.5,153.5C 356.9,167.035 349.566,180.701 342.5,194.5 Z M 458.5,194.5 C 443.402,195.823 428.402,195.823 413.5,194.5C 421.392,181.057 429.059,167.391 436.5,153.5C 451.167,152.167 465.833,152.167 480.5,153.5C 472.887,167.062 465.554,180.728 458.5,194.5 Z"/></g>
<g><path style="opacity:0.529" fill="#e2c4fd" d="M 412.5,66.5 C 413.906,66.9731 414.573,67.9731 414.5,69.5C 413.094,69.0269 412.427,68.0269 412.5,66.5 Z"/></g>
<g><path style="opacity:0.529" fill="#e1c2fd" d="M 292.5,73.5 C 293.906,73.9731 294.573,74.9731 294.5,76.5C 293.094,76.0269 292.427,75.0269 292.5,73.5 Z"/></g>
<g><path style="opacity:0.027" fill="#f5ebfe" d="M 176.5,83.5 C 176.5,84.1667 176.5,84.8333 176.5,85.5C 174.067,84.4523 174.067,83.7856 176.5,83.5 Z"/></g>
<g><path style="opacity:0.545" fill="#e2c4fd" d="M 182.5,94.5 C 183.906,94.9731 184.573,95.9731 184.5,97.5C 183.094,97.0269 182.427,96.0269 182.5,94.5 Z"/></g>
<g><path style="opacity:0.118" fill="#f0e2fe" d="M 63.5,97.5 C 62.4489,98.2223 61.7822,99.2223 61.5,100.5C 60.596,99.791 60.2627,98.791 60.5,97.5C 61.5,97.5 62.5,97.5 63.5,97.5 Z"/></g>
<g><path style="opacity:0.067" fill="#f3e6fe" d="M 361.5,102.5 C 363.933,103.548 363.933,104.214 361.5,104.5C 361.5,103.833 361.5,103.167 361.5,102.5 Z"/></g>
<g><path style="opacity:0.502" fill="#e2c5fd" d="M 44.5,108.5 C 46.0269,108.427 47.0269,109.094 47.5,110.5C 45.9731,110.573 44.9731,109.906 44.5,108.5 Z"/></g>
<g><path style="opacity:0.878" fill="#e3c7fe" d="M 246.5,116.5 C 248.233,117.008 248.566,117.841 247.5,119C 244.854,119.497 242.187,119.664 239.5,119.5C 242.159,119.083 244.492,118.083 246.5,116.5 Z"/></g>
<g><path style="opacity:0.557" fill="#e2c4fd" d="M 77.5,122.5 C 78.9063,122.973 79.573,123.973 79.5,125.5C 78.0937,125.027 77.427,124.027 77.5,122.5 Z"/></g>
<g><path style="opacity:0.843" fill="#e3c7fd" d="M 132.5,131.5 C 133.043,131.56 133.376,131.893 133.5,132.5C 128.6,133.904 123.6,134.571 118.5,134.5C 123.167,133.5 127.833,132.5 132.5,131.5 Z"/></g>
<g><path style="opacity:0.486" fill="#dfc1fd" d="M 68.5,143.5 C 67.791,144.404 66.791,144.737 65.5,144.5C 65.5,146.167 65.5,147.833 65.5,149.5C 206.167,149.5 346.833,149.5 487.5,149.5C 487.5,149.833 487.5,150.167 487.5,150.5C 346.5,150.5 205.5,150.5 64.5,150.5C 64.5,148.167 64.5,145.833 64.5,143.5C 65.8333,143.5 67.1667,143.5 68.5,143.5 Z"/></g>
<g><path style="opacity:0.224" fill="#eedffe" d="M 66.5,194.5 C 80.9905,195.496 95.6572,195.829 110.5,195.5C 95.6614,196.826 80.6614,196.826 65.5,195.5C 65.6236,194.893 65.9569,194.56 66.5,194.5 Z"/></g>
<g><path style="opacity:0.22" fill="#efe0fe" d="M 182.5,194.5 C 196.99,195.496 211.657,195.829 226.5,195.5C 211.661,196.826 196.661,196.826 181.5,195.5C 181.624,194.893 181.957,194.56 182.5,194.5 Z"/></g>
<g><path style="opacity:0.22" fill="#eedffe" d="M 298.5,193.5 C 305.301,194.831 312.467,195.497 320,195.5C 327.576,195.484 335.076,195.151 342.5,194.5C 335.197,195.831 327.53,196.498 319.5,196.5C 311.833,196.333 304.167,196.167 296.5,196C 297.066,195.005 297.733,194.172 298.5,193.5 Z"/></g>
<g><path style="opacity:0.215" fill="#edddfe" d="M 413.5,194.5 C 428.402,195.823 443.402,195.823 458.5,194.5C 451.197,195.831 443.53,196.498 435.5,196.5C 427.833,196.167 420.167,195.833 412.5,195.5C 412.624,194.893 412.957,194.56 413.5,194.5 Z"/></g>
<g><path style="opacity:0.687" fill="#ccbade" d="M 487.5,149.5 C 488.497,165.992 488.83,182.658 488.5,199.5C 487.5,199.5 486.5,199.5 485.5,199.5C 329.5,199.5 173.5,199.5 17.5,199.5C 17.5,199.167 17.5,198.833 17.5,198.5C 174.167,198.5 330.833,198.5 487.5,198.5C 487.5,182.5 487.5,166.5 487.5,150.5C 487.5,150.167 487.5,149.833 487.5,149.5 Z"/></g>
<g><path style="opacity:0.282" fill="#e8d3fd" d="M 14.5,142.5 C 14.8373,161.356 15.8373,180.022 17.5,198.5C 17.5,198.833 17.5,199.167 17.5,199.5C 17.5,284.5 17.5,369.5 17.5,454.5C 16.8696,350.659 15.8696,246.659 14.5,142.5 Z"/></g>
<g><path style="opacity:1" fill="#c085fc" d="M 17.5,199.5 C 173.5,199.5 329.5,199.5 485.5,199.5C 485.624,258.898 485.957,318.398 486.5,378C 485.795,403.829 485.295,429.662 485,455.5C 484.215,457.286 483.049,458.786 481.5,460C 404.89,461.162 328.223,461.662 251.5,461.5C 175.833,461.333 100.167,461.167 24.5,461C 23.2625,460.768 22.2625,460.268 21.5,459.5C 21.0269,458.094 20.0269,457.427 18.5,457.5C 17.8902,456.609 17.5569,455.609 17.5,454.5C 17.5,369.5 17.5,284.5 17.5,199.5 Z M 36.5,249.5 C 179.903,249.168 323.237,249.502 466.5,250.5C 323.504,252.498 180.171,253.165 36.5,252.5C 36.5,251.5 36.5,250.5 36.5,249.5 Z M 50.5,313.5 C 188.724,313.699 326.891,313.699 465,313.5C 467.043,315.088 466.876,316.421 464.5,317.5C 373.873,316.489 283.206,316.489 192.5,317.5C 140.489,317.582 88.4893,316.916 36.5,315.5C 41.3167,314.833 45.9834,314.166 50.5,313.5 Z M 466.5,379.5 C 466.5,380.167 466.5,380.833 466.5,381.5C 424.833,381.5 383.167,381.5 341.5,381.5C 341.5,402.5 341.5,423.5 341.5,444.5C 340.5,444.5 339.5,444.5 338.5,444.5C 338.5,423.5 338.5,402.5 338.5,381.5C 280.331,381.168 222.331,381.501 164.5,382.5C 164.471,402.958 164.471,423.625 164.5,444.5C 163.5,444.5 162.5,444.5 161.5,444.5C 161.831,423.66 161.497,402.993 160.5,382.5C 119.337,381.501 78.0034,381.168 36.5,381.5C 36.4142,380.504 36.7476,379.671 37.5,379C 180.57,378.168 323.57,378.335 466.5,379.5 Z"/></g>
<g><path style="opacity:0.458" fill="#e0c2fe" d="M 36.5,249.5 C 107.999,248.833 179.666,248.5 251.5,248.5C 323.503,248.5 395.17,249.167 466.5,250.5C 323.237,249.502 179.903,249.168 36.5,249.5 Z"/></g>
<g><path style="opacity:0.504" fill="#e0c2fe" d="M 466.5,379.5 C 323.57,378.335 180.57,378.168 37.5,379C 36.7476,379.671 36.4142,380.504 36.5,381.5C 35.2089,380.458 35.2089,379.292 36.5,378C 108.167,377.833 179.833,377.667 251.5,377.5C 323.503,377.5 395.17,378.167 466.5,379.5 Z"/></g>
<g><path style="opacity:0.477" fill="#dfc1fd" d="M 164.5,382.5 C 222.331,381.501 280.331,381.168 338.5,381.5C 338.5,402.5 338.5,423.5 338.5,444.5C 339.5,444.5 340.5,444.5 341.5,444.5C 341.5,423.5 341.5,402.5 341.5,381.5C 383.167,381.5 424.833,381.5 466.5,381.5C 425.337,382.499 384.003,382.832 342.5,382.5C 342.5,403.5 342.5,424.5 342.5,445.5C 340.833,445.5 339.167,445.5 337.5,445.5C 337.5,424.5 337.5,403.5 337.5,382.5C 280.167,382.5 222.833,382.5 165.5,382.5C 165.167,382.5 164.833,382.5 164.5,382.5 Z"/></g>
<g><path style="opacity:0.069" fill="#f5ecfe" d="M 160.5,382.5 C 161.497,402.993 161.831,423.66 161.5,444.5C 162.5,444.5 163.5,444.5 164.5,444.5C 163.432,445.434 162.099,445.768 160.5,445.5C 160.5,424.5 160.5,403.5 160.5,382.5 Z"/></g>
<g><path style="opacity:0.873" fill="#c894fc" d="M 164.5,382.5 C 164.833,382.5 165.167,382.5 165.5,382.5C 165.831,403.34 165.497,424.007 164.5,444.5C 164.471,423.625 164.471,402.958 164.5,382.5 Z"/></g>
<g><path style="opacity:0.686" fill="#e7cefe" d="M 18.5,457.5 C 20.0269,457.427 21.0269,458.094 21.5,459.5C 19.9731,459.573 18.9731,458.906 18.5,457.5 Z"/></g>
</svg>
